<?xml version="1.0" encoding="utf-8"?>
<!-- Generator: Adobe Illustrator 16.0.0, SVG Export Plug-In . SVG Version: 6.00 Build 0)  -->
<!DOCTYPE svg PUBLIC "-//W3C//DTD SVG 1.1//EN" "http://www.w3.org/Graphics/SVG/1.1/DTD/svg11.dtd">
<svg version="1.1" id="Ebene_1" xmlns="http://www.w3.org/2000/svg" xmlns:xlink="http://www.w3.org/1999/xlink" x="0px" y="0px"
	 width="100px" height="100px" viewBox="0 0 100 100" enable-background="new 0 0 100 100" xml:space="preserve">
<g>
	<g>
		<path fill="#FFFFFF" d="M50.001,0C22.386,0,0,22.385,0,50.001C0,77.616,22.386,100,50.001,100C77.612,100,100,77.616,100,50.001
			C100,22.385,77.612,0,50.001,0z M81,72H18V30h63V72z"/>
		<path fill="#FFFFFF" d="M81.521,72.832H18.479c-0.862,0-1.56-0.7-1.56-1.561V28.727c0-0.861,0.698-1.56,1.56-1.56h63.042
			c0.863,0,1.562,0.698,1.562,1.56v42.545C83.083,72.132,82.385,72.832,81.521,72.832z M20.038,69.715h59.925V30.287H20.038V69.715z
			"/>
	</g>
	<g>
		<path fill="#FFFFFF" d="M50,56.021c-2.077,0-4.151-0.741-5.804-2.22L17.441,29.891c-0.48-0.434-0.649-1.114-0.417-1.721
			c0.229-0.603,0.811-1.003,1.456-1.003h63.042c0.647,0,1.227,0.4,1.456,1.003c0.23,0.606,0.064,1.287-0.417,1.721L55.806,53.802
			l0,0C54.147,55.28,52.076,56.021,50,56.021z M22.562,30.287l23.711,21.19c2.125,1.897,5.332,1.897,7.456,0l23.708-21.19H22.562z
			 M54.768,52.639h0.029H54.768z"/>
	</g>
	<g>
		<path fill="#FFFFFF" d="M81.521,72.543H18.479c-0.646,0-1.228-0.401-1.456-1.002c-0.231-0.606-0.063-1.289,0.417-1.721
			l23.478-20.983c0.643-0.572,1.629-0.518,2.202,0.126c0.572,0.642,0.518,1.625-0.125,2.2L22.562,69.425h54.875l-20.43-18.261
			c-0.644-0.575-0.698-1.558-0.128-2.2c0.577-0.645,1.56-0.699,2.203-0.126L82.561,69.82c0.481,0.432,0.647,1.114,0.417,1.721
			C82.748,72.142,82.169,72.543,81.521,72.543z"/>
	</g>
</g>
</svg>
